<svg id="Calque_1" data-name="Calque 1" xmlns="http://www.w3.org/2000/svg" xmlns:xlink="http://www.w3.org/1999/xlink" viewBox="0 0 495.89 698.93"><defs><style>.cls-1{fill:none;}.cls-2{fill:#42210b;}.cls-3{fill:#160b04;}.cls-4{fill:#754c24;}.cls-5{fill:#261106;}.cls-6{fill:#fff;}.cls-7{fill:#1e0e05;}.cls-8{fill:#999;}.cls-9{fill:#725635;}.cls-10{fill:#f2f2f2;}.cls-11{fill:#261207;}.cls-12{fill:#ccc;}.cls-13{fill:#1c0e05;}.cls-14{fill:#513218;}.cls-15{fill:#474645;}.cls-16{fill:#19120b;}.cls-17{clip-path:url(#clip-path);}.cls-18{fill:#63371f;}.cls-19{clip-path:url(#clip-path-2);}.cls-20{font-size:69px;font-family:Arial;}</style><clipPath id="clip-path" transform="translate(-1394.11 -31.14)"><circle class="cls-1" cx="1594.84" cy="245.47" r="4.97"/></clipPath><clipPath id="clip-path-2" transform="translate(-1394.11 -31.14)"><circle class="cls-1" cx="1644.99" cy="245.45" r="4.97"/></clipPath></defs><title>loutre reflexion</title><circle class="cls-2" cx="293.05" cy="196.44" r="21.42"/><circle class="cls-3" cx="291.18" cy="197.53" r="13.73"/><path class="cls-2" d="M1394.11,532.09s42.89-7.91,72.89,8.59S1571.9,674.8,1571.9,674.8l20.35-63.22-95.43-79.67c-29-24.24-71.31-25.13-100.77-1.42Q1395.08,531.27,1394.11,532.09Z" transform="translate(-1394.11 -31.14)"/><rect class="cls-2" x="218.89" y="319.36" width="24.56" height="33.5"/><rect class="cls-4" x="194.33" y="319.36" width="24.56" height="33.5"/><path class="cls-5" d="M1613,351h-25v2l10.94,4.52a36.81,36.81,0,0,0,28.12,0L1638,353v-2h-25Z" transform="translate(-1394.11 -31.14)"/><circle class="cls-2" cx="145.7" cy="196.36" r="21.42"/><circle class="cls-3" cx="147.56" cy="197.45" r="13.73"/><path class="cls-4" d="M1541.57,223.88L1530,287.67a55.39,55.39,0,0,0,54.51,65.27h28.67v-160h-34.57A37.65,37.65,0,0,0,1541.57,223.88Z" transform="translate(-1394.11 -31.14)"/><path class="cls-2" d="M1607.5,245.75c0-6.94-11.25-12.56-25.12-12.56s-25.12,5.62-25.12,12.56c0,6.77,8.59,12.2,22,12.46h0a33.32,33.32,0,0,1,4.19.47l19.43,3.43a3.51,3.51,0,0,0,4.12-3.45v-6a62.2,62.2,0,0,1,.47-6.23A6.37,6.37,0,0,0,1607.5,245.75Z" transform="translate(-1394.11 -31.14)"/><ellipse cx="1588.03" cy="246.33" rx="9.43" ry="14.71" transform="translate(-113.23 1792.58) rotate(-87.8)"/><ellipse class="cls-6" cx="1588.03" cy="247.87" rx="7.29" ry="11.37" transform="translate(-114.77 1794.07) rotate(-87.8)"/><path class="cls-2" d="M1563.87,229.86a37.22,37.22,0,0,1,27.25-9.57S1570.15,216.72,1563.87,229.86Z" transform="translate(-1394.11 -31.14)"/><path class="cls-2" d="M1684.62,223.94l11.56,63.79A55.39,55.39,0,0,1,1641.67,353H1613V193h34.57A37.65,37.65,0,0,1,1684.62,223.94Z" transform="translate(-1394.11 -31.14)"/><path class="cls-3" d="M1618.5,245.75c0-6.94,11.25-12.56,25.13-12.56s25.13,5.62,25.13,12.56c0,6.77-8.59,12.2-22,12.46h0a33.32,33.32,0,0,0-4.19.47l-19.43,3.43a3.51,3.51,0,0,1-4.12-3.45v-6a62.2,62.2,0,0,0-.47-6.23A6.37,6.37,0,0,1,1618.5,245.75Z" transform="translate(-1394.11 -31.14)"/><path class="cls-7" d="M1661.5,230.06a37.22,37.22,0,0,0-26.25-12S1656.45,216.39,1661.5,230.06Z" transform="translate(-1394.11 -31.14)"/><circle class="cls-8" cx="184.08" cy="268.28" r="0.94"/><circle class="cls-8" cx="1572.12" cy="296.07" r="0.94" transform="translate(-374.45 1766.27) rotate(-80.46)"/><path class="cls-9" d="M1572.12,296.07" transform="translate(-1394.11 -31.14)"/><path class="cls-4" d="M1592.54,641.1c-11.42-29.31-31-49.74-46.73-47.2-17.73,2.86-23.76,33.9-13.47,69.32s33,61.82,50.72,59a15.92,15.92,0,0,0,7.6-3.46,108,108,0,0,1-6.81-17.58C1576,674.28,1580.08,650,1592.54,641.1Z" transform="translate(-1394.11 -31.14)"/><path class="cls-4" d="M1541.54,436.75L1530,546.11c-6.16,58.27,20,111.89,54.51,111.89h28.67V383.71h-34.57C1560.39,383.71,1544.79,406,1541.54,436.75Z" transform="translate(-1394.11 -31.14)"/><path class="cls-2" d="M109.78,681h82.75a17.89,17.89,0,0,1,17.89,17.89v0a0,0,0,0,1,0,0H91.89a0,0,0,0,1,0,0v0A17.89,17.89,0,0,1,109.78,681Z"/><path class="cls-10" d="M1568.27,519.71c0,66.48,19.73,120.37,44.73,120.37V399.33C1588,399.33,1568.27,453.23,1568.27,519.71Z" transform="translate(-1394.11 -31.14)"/><path class="cls-2" d="M1635,640.89c11.42-29.31,31-49.74,46.73-47.2,17.73,2.86,23.76,33.9,13.47,69.32s-33,61.82-50.72,59a15.92,15.92,0,0,1-7.6-3.46,108,108,0,0,0,6.81-17.58C1651.48,674.07,1647.45,649.78,1635,640.89Z" transform="translate(-1394.11 -31.14)"/><path class="cls-2" d="M1685,436.61l11.56,109.29c6.16,58.27-20,111.82-54.51,111.82h-29v-274h34.94C1666.14,383.71,1681.74,405.9,1685,436.61Z" transform="translate(-1394.11 -31.14)"/><path class="cls-11" d="M1623,712.18h118.53a0,0,0,0,1,0,0v0a17.89,17.89,0,0,1-17.89,17.89h-82.75A17.89,17.89,0,0,1,1623,712.18v0A0,0,0,0,1,1623,712.18Z" transform="translate(1970.42 1411.12) rotate(180)"/><path class="cls-12" d="M1657.73,519.71c0-66.48-20.73-120.37-44.73-120.37V640.08C1637,640.08,1657.73,586.19,1657.73,519.71Z" transform="translate(-1394.11 -31.14)"/><ellipse class="cls-5" cx="1692.37" cy="417.63" rx="14.54" ry="50.09" transform="translate(-1092.13 1437.85) rotate(-50.96)"/><ellipse class="cls-13" cx="1712.93" cy="471.65" rx="36.05" ry="10.91" transform="translate(-887.45 1744.92) rotate(-62.63)"/><path class="cls-13" d="M1684.75,490.55h7a7.14,7.14,0,0,1,7.14,7.14v7.16a10.7,10.7,0,0,1-10.7,10.7h-4.8a6.5,6.5,0,0,1-6.5-6.5V498.39a7.83,7.83,0,0,1,7.83-7.83Z" transform="translate(843.06 2145.36) rotate(-124.77)"/><ellipse class="cls-13" cx="1684" cy="517.48" rx="6.75" ry="2.05" transform="translate(-1388.57 1021.51) rotate(-34.77)"/><ellipse class="cls-13" cx="1677.09" cy="515.61" rx="8.9" ry="2.05" transform="translate(-1388.74 1017.24) rotate(-34.77)"/><ellipse class="cls-13" cx="1673.59" cy="510.87" rx="12.36" ry="2.05" transform="translate(-1386.67 1014.39) rotate(-34.77)"/><ellipse class="cls-13" cx="1672.66" cy="503.06" rx="12.36" ry="2.05" transform="translate(-1382.38 1012.47) rotate(-34.77)"/><ellipse class="cls-14" cx="1558.38" cy="432.75" rx="13.07" ry="41.5" transform="translate(-1448.02 273.66) rotate(-10.98)"/><path class="cls-10" d="M1556.66,290a23.51,23.51,0,0,0-20.35,35.26,55.3,55.3,0,0,0,48,27.74H1613V290h-56.34Z" transform="translate(-1394.11 -31.14)"/><path class="cls-12" d="M1613,353h28.67a55.3,55.3,0,0,0,48-27.74A23.51,23.51,0,0,0,1669.34,290H1613v63Z" transform="translate(-1394.11 -31.14)"/><circle class="cls-15" cx="263.96" cy="271.85" r="0.94"/><circle class="cls-15" cx="1652" cy="307.64" r="0.94" transform="translate(-319.2 1854.7) rotate(-80.46)"/><circle class="cls-15" cx="253.7" cy="268.59" r="0.94"/><circle class="cls-15" cx="1641.75" cy="304.38" r="0.94" transform="matrix(0.17, -0.99, 0.99, 0.17, -324.54, 1841.86)"/><circle class="cls-15" cx="194.33" cy="272.54" r="0.94"/><circle class="cls-15" cx="1582.38" cy="308.33" r="0.94" transform="matrix(0.17, -0.99, 0.99, 0.17, -377.98, 1786.61)"/><path class="cls-15" d="M1572.12,305.07s-13.29-1.13-21.79,2.56C1550.33,307.64,1561.71,302.74,1572.12,305.07Z" transform="translate(-1394.11 -31.14)"/><path class="cls-15" d="M1578.16,300.21s-17.06-2.91-28.42-.39C1549.74,299.82,1565,296.48,1578.16,300.21Z" transform="translate(-1394.11 -31.14)"/><circle class="cls-15" cx="183.85" cy="268.86" r="0.94"/><circle class="cls-15" cx="1571.9" cy="304.65" r="0.94" transform="translate(-383.09 1773.21) rotate(-80.46)"/><path class="cls-15" d="M1651.78,308.07s13.29-1.13,21.79,2.56C1673.57,310.64,1662.19,305.74,1651.78,308.07Z" transform="translate(-1394.11 -31.14)"/><path class="cls-15" d="M1657.74,303.21s17.06-2.91,28.42-.39C1686.16,302.82,1670.95,299.48,1657.74,303.21Z" transform="translate(-1394.11 -31.14)"/><path class="cls-2" d="M1599.53,282.25v4.25c0,6.08,6,11,13.47,11h0v-21h-6.43C1602.68,276.5,1599.53,279.07,1599.53,282.25Z" transform="translate(-1394.11 -31.14)"/><ellipse cx="212.76" cy="252.11" rx="3.37" ry="2.75"/><path class="cls-3" d="M1626.47,282.25v4.25c0,6.08-6,11-13.47,11h0v-21h6.43C1623.32,276.5,1626.47,279.07,1626.47,282.25Z" transform="translate(-1394.11 -31.14)"/><ellipse cx="225.01" cy="252.11" rx="3.37" ry="2.75"/><circle class="cls-14" cx="164.27" cy="368.19" r="13.22"/><ellipse class="cls-2" cx="1577.03" cy="412.96" rx="63.14" ry="14.18" transform="translate(-553.01 1836.46) rotate(-77.84)"/><path class="cls-2" d="M1586.92,338.4h4.87a10.41,10.41,0,0,1,10.41,10.41v7.14a7.18,7.18,0,0,1-7.18,7.18h-7a7.87,7.87,0,0,1-7.87-7.87V345.13a6.73,6.73,0,0,1,6.73-6.73Z" transform="matrix(-0.93, -0.36, 0.36, -0.93, 1559.46, 1213.38)"/><ellipse class="cls-2" cx="1599.9" cy="348.54" rx="6.75" ry="2.05" transform="translate(-689 1688.72) rotate(-69.17)"/><ellipse class="cls-2" cx="1595.43" cy="346.29" rx="8.9" ry="2.05" transform="translate(-689.78 1683.08) rotate(-69.17)"/><ellipse class="cls-2" cx="1589.99" cy="345.02" rx="12.36" ry="2.05" transform="translate(-692.1 1677.18) rotate(-69.17)"/><ellipse class="cls-2" cx="1587.18" cy="336.01" rx="12.36" ry="2.05" transform="translate(-685.48 1668.75) rotate(-69.17)"/><path class="cls-16" d="M1601.56,309.92s7.62,6.62,24.55,10C1626.11,319.91,1609.8,319.57,1601.56,309.92Z" transform="translate(-1394.11 -31.14)"/><g class="cls-17"><ellipse class="cls-18" cx="1588.03" cy="247.87" rx="7.29" ry="11.37" transform="translate(-114.77 1794.07) rotate(-87.8)"/></g><circle cx="1595.22" cy="245.04" r="3.39" transform="translate(-1100.16 1168.62) rotate(-45)"/><circle class="cls-6" cx="198.67" cy="213.61" r="1.71"/><ellipse cx="1638.18" cy="246.31" rx="9.43" ry="14.71" transform="matrix(0.04, -1, 1, 0.04, -64.99, 1842.67)"/><ellipse class="cls-6" cx="1638.18" cy="247.85" rx="7.29" ry="11.37" transform="translate(-66.53 1844.16) rotate(-87.8)"/><g class="cls-19"><ellipse class="cls-18" cx="1638.18" cy="247.85" rx="7.29" ry="11.37" transform="translate(-66.53 1844.16) rotate(-87.8)"/></g><circle cx="1645.37" cy="245.02" r="3.39" transform="translate(-1085.46 1204.07) rotate(-45)"/><circle class="cls-6" cx="246.82" cy="214.59" r="1.71"/><path class="cls-6" d="M1684.57,110.65s-6-22.37,21.31-32.32c0,0-4.26-21.31,16-28.05,0,0,11.72-3.2,22,0,0,0,13.14-22,40.48-18.82,0,0,14.56.71,25.92,19.18,0,0,21.66-1.78,28.41,13.14,0,0,5,10.3,4.26,18.82,0,0,25.92,10.3,10.65,36.58S1800,124.5,1800,124.5s-18.47,17.4-33.74,15.63S1736.77,127,1736.77,127,1694.51,147.59,1684.57,110.65Z" transform="translate(-1394.11 -31.14)"/><path class="cls-6" d="M1677.29,158.7s-1.33-4.94,4.7-7.13c0,0-.94-4.7,3.53-6.19a10,10,0,0,1,4.86,0,9.39,9.39,0,0,1,8.94-4.16s3.21,0.16,5.72,4.23c0,0,4.78-.39,6.27,2.9a9.71,9.71,0,0,1,.94,4.16s5.72,2.27,2.35,8.08-11.84,1.18-11.84,1.18-4.08,3.84-7.45,3.45a15,15,0,0,1-6.51-2.9S1679.48,166.85,1677.29,158.7Z" transform="translate(-1394.11 -31.14)"/><path class="cls-6" d="M1656.32,184.83s-0.66-2.43,2.32-3.52a2.66,2.66,0,0,1,1.74-3.05,4.91,4.91,0,0,1,2.4,0,4.63,4.63,0,0,1,4.4-2,3.89,3.89,0,0,1,2.82,2.09s2.36-.19,3.09,1.43a4.78,4.78,0,0,1,.46,2,2.58,2.58,0,0,1,1.16,4c-1.66,2.86-5.83.58-5.83,0.58s-2,1.89-3.67,1.7a7.38,7.38,0,0,1-3.21-1.43S1657.4,188.85,1656.32,184.83Z" transform="translate(-1394.11 -31.14)"/><text class="cls-20" transform="translate(356.89 78.85)">?</text></svg>