<svg id="Calque_1" data-name="Calque 1" xmlns="http://www.w3.org/2000/svg" viewBox="0 0 363.26 537.08"><defs><style>.cls-1{fill:#42210b;}.cls-2{fill:#301608;}.cls-3{fill:#070301;}.cls-4{fill:#754c24;}.cls-5{fill:#603c1e;}.cls-6{fill:#160b04;}.cls-7{fill:#261106;}.cls-8{fill:#fff;}.cls-9{fill:#63371f;}.cls-10{fill:#999;}.cls-11{fill:#725635;}.cls-12{fill:#f2f2f2;}.cls-13{fill:#261207;}.cls-14{fill:#ccc;}.cls-15{fill:#474645;}.cls-16{fill:#19120b;}.cls-17{fill:#e54564;}</style></defs><title>loutre expression</title><ellipse class="cls-1" cx="1101.43" cy="1054.51" rx="50.09" ry="14.54" transform="translate(-1214.37 50.28) rotate(-39.04)"/><ellipse class="cls-1" cx="1140.78" cy="1001.75" rx="36.05" ry="10.91" transform="translate(-917.74 966.09) rotate(-75.03)"/><path class="cls-2" d="M1141.28,943.67h4.12a12.09,12.09,0,0,1,12.09,12.09v9.84A8.45,8.45,0,0,1,1149,974h-13.81a4.47,4.47,0,0,1-4.47-4.47V954.19a10.52,10.52,0,0,1,10.52-10.52Z" transform="matrix(-0.97, 0.22, -0.22, -0.97, 1677.3, 759.11)"/><ellipse class="cls-1" cx="1100.68" cy="1073.6" rx="63.1" ry="14.62" transform="translate(-1204.39 489.86) rotate(-55.36)"/><path class="cls-2" d="M1125.73,933.86s6.53,15.59,3.91,21.64l7.46-5.51S1136.33,935.4,1125.73,933.86Z" transform="translate(-796.11 -879)"/><circle class="cls-3" cx="347.6" cy="78.1" r="8.2"/><path class="cls-1" d="M1144.49,939.87h4.74a0.74,0.74,0,0,1,.74.74v14.94a2.12,2.12,0,0,1-2.12,2.12h-2a2.12,2.12,0,0,1-2.12-2.12V940.61a0.74,0.74,0,0,1,.74-0.74Z" transform="translate(1019.56 -1259.94) rotate(77.1)"/><path class="cls-1" d="M1150.65,955.71h3.89a0.64,0.64,0,0,1,.64.64v10.23a2.12,2.12,0,0,1-2.12,2.12h-0.91a2.12,2.12,0,0,1-2.12-2.12V956.35a0.64,0.64,0,0,1,.64-0.64Z" transform="translate(1037.11 -1255.1) rotate(77.1)"/><path class="cls-1" d="M1148.63,948.75h3.8a0.68,0.68,0,0,1,.68.68v11a2.12,2.12,0,0,1-2.12,2.12h-0.91a2.12,2.12,0,0,1-2.12-2.12v-11A0.68,0.68,0,0,1,1148.63,948.75Z" transform="translate(1029.13 -1258.16) rotate(77.1)"/><ellipse class="cls-4" cx="935.48" cy="1063.51" rx="14.54" ry="50.09" transform="translate(-1275.89 241.17) rotate(-50.96)"/><ellipse class="cls-4" cx="896.13" cy="1010.75" rx="10.91" ry="36.05" transform="translate(-1026.76 -613.25) rotate(-14.97)"/><path class="cls-5" d="M883.9,952.67H897.7a8.45,8.45,0,0,1,8.45,8.45V971A12.09,12.09,0,0,1,894.07,983h-4.12a10.52,10.52,0,0,1-10.52-10.52V957.14a4.47,4.47,0,0,1,4.47-4.47Z" transform="translate(-557.53 -1053.87) rotate(12.9)"/><circle class="cls-1" cx="293.05" cy="34.59" r="21.42"/><circle class="cls-6" cx="291.18" cy="35.68" r="13.73"/><path class="cls-1" d="M796.11,1218.09s42.89-7.91,72.89,8.59S973.9,1360.8,973.9,1360.8l20.35-63.22-95.43-79.67c-29-24.24-71.31-25.13-100.77-1.42Q797.08,1217.27,796.11,1218.09Z" transform="translate(-796.11 -879)"/><rect class="cls-1" x="218.89" y="157.5" width="24.56" height="33.5"/><rect class="cls-4" x="194.33" y="157.5" width="24.56" height="33.5"/><path class="cls-7" d="M1015,1037H990v2l10.94,4.52a36.81,36.81,0,0,0,28.12,0L1040,1039v-2h-25Z" transform="translate(-796.11 -879)"/><circle class="cls-1" cx="145.7" cy="34.5" r="21.42"/><circle class="cls-6" cx="147.56" cy="35.59" r="13.73"/><path class="cls-4" d="M943.38,909.94l-11.56,63.79A55.39,55.39,0,0,0,986.33,1039H1015V879H980.43A37.65,37.65,0,0,0,943.38,909.94Z" transform="translate(-796.11 -879)"/><path class="cls-1" d="M1009.5,931.75c0-6.94-11.25-12.56-25.12-12.56s-25.12,5.62-25.12,12.56c0,6.77,8.59,12.2,22,12.46h0a33.32,33.32,0,0,1,4.19.47l19.43,3.43a3.51,3.51,0,0,0,4.12-3.45v-6a62.2,62.2,0,0,1,.47-6.23A6.37,6.37,0,0,0,1009.5,931.75Z" transform="translate(-796.11 -879)"/><ellipse cx="986.71" cy="931.88" rx="10.89" ry="16.99" transform="translate(-778.49 1003.07) rotate(-87.8)"/><ellipse class="cls-8" cx="986.71" cy="933.66" rx="8.42" ry="13.13" transform="translate(-780.28 1004.79) rotate(-87.8)"/><path class="cls-1" d="M963.16,917.08a37.22,37.22,0,0,1,28.26-5.94S971.1,904.87,963.16,917.08Z" transform="translate(-796.11 -879)"/><path class="cls-1" d="M1086.62,909.94l11.56,63.79a55.39,55.39,0,0,1-54.51,65.27H1015V879h34.57A37.65,37.65,0,0,1,1086.62,909.94Z" transform="translate(-796.11 -879)"/><path class="cls-6" d="M1020.5,931.75c0-6.94,11.25-12.56,25.13-12.56s25.13,5.62,25.13,12.56c0,6.77-8.59,12.2-22,12.46h0a33.32,33.32,0,0,0-4.19.47l-19.43,3.43a3.51,3.51,0,0,1-4.12-3.45v-6a62.2,62.2,0,0,0-.47-6.23A6.37,6.37,0,0,1,1020.5,931.75Z" transform="translate(-796.11 -879)"/><circle class="cls-9" cx="192.75" cy="54.8" r="5.74"/><circle cx="986.76" cy="933.53" r="3.91" transform="translate(-1167.2 92.17) rotate(-45)"/><circle class="cls-8" cx="188.73" cy="51.96" r="2.84"/><circle class="cls-10" cx="184.08" cy="106.43" r="0.94"/><circle class="cls-10" cx="974.12" cy="982.07" r="0.94" transform="translate(-951.89 901.02) rotate(-80.46)"/><path class="cls-11" d="M974.12,982.07" transform="translate(-796.11 -879)"/><path class="cls-4" d="M994.54,1327.1c-11.42-29.31-31-49.74-46.73-47.2-17.73,2.86-23.76,33.9-13.47,69.32s33,61.82,50.72,59a15.92,15.92,0,0,0,7.6-3.46,108,108,0,0,1-6.81-17.58C978,1360.28,982.08,1336,994.54,1327.1Z" transform="translate(-796.11 -879)"/><path class="cls-4" d="M943.54,1122.75L932,1232.11c-6.16,58.27,20,111.89,54.51,111.89h28.67V1069.71H980.59C962.39,1069.71,946.79,1092,943.54,1122.75Z" transform="translate(-796.11 -879)"/><path class="cls-1" d="M109.78,519.18h82.75a17.89,17.89,0,0,1,17.89,17.89v0a0,0,0,0,1,0,0H91.89a0,0,0,0,1,0,0v0a17.89,17.89,0,0,1,17.89-17.89Z"/><path class="cls-12" d="M970.27,1205.71c0,66.48,19.73,120.37,44.73,120.37V1085.33C990,1085.33,970.27,1139.23,970.27,1205.71Z" transform="translate(-796.11 -879)"/><path class="cls-1" d="M1037,1326.89c11.42-29.31,31-49.74,46.73-47.2,17.73,2.86,23.76,33.9,13.47,69.32s-33,61.82-50.72,59a15.92,15.92,0,0,1-7.6-3.46,108,108,0,0,0,6.81-17.58C1053.48,1360.07,1049.45,1335.78,1037,1326.89Z" transform="translate(-796.11 -879)"/><path class="cls-1" d="M1087,1122.61l11.56,109.29c6.16,58.27-20,111.82-54.51,111.82h-29v-274h34.94C1068.14,1069.71,1083.74,1091.9,1087,1122.61Z" transform="translate(-796.11 -879)"/><path class="cls-13" d="M1025,1398.18h118.53a0,0,0,0,1,0,0v0a17.89,17.89,0,0,1-17.89,17.89h-82.75a17.89,17.89,0,0,1-17.89-17.89v0A0,0,0,0,1,1025,1398.18Z" transform="translate(1372.42 1935.26) rotate(180)"/><path class="cls-14" d="M1059.73,1205.71c0-66.48-20.73-120.37-44.73-120.37v240.75C1039,1326.08,1059.73,1272.19,1059.73,1205.71Z" transform="translate(-796.11 -879)"/><path class="cls-12" d="M958.66,976a23.51,23.51,0,0,0-20.35,35.26,55.3,55.3,0,0,0,48,27.74H1015V976H958.66Z" transform="translate(-796.11 -879)"/><path class="cls-14" d="M1015,1039h28.67a55.3,55.3,0,0,0,48-27.74A23.51,23.51,0,0,0,1071.34,976H1015v63Z" transform="translate(-796.11 -879)"/><circle class="cls-15" cx="263.96" cy="109.99" r="0.94"/><circle class="cls-15" cx="1054" cy="993.64" r="0.94" transform="translate(-896.65 989.45) rotate(-80.46)"/><circle class="cls-15" cx="253.7" cy="106.73" r="0.94"/><circle class="cls-15" cx="1043.75" cy="990.38" r="0.94" transform="matrix(0.17, -0.99, 0.99, 0.17, -901.99, 976.62)"/><circle class="cls-15" cx="194.33" cy="110.69" r="0.94"/><circle class="cls-15" cx="984.38" cy="994.33" r="0.94" transform="translate(-955.42 921.36) rotate(-80.46)"/><path class="cls-15" d="M974.12,991.07s-13.29-1.13-21.79,2.56C952.33,993.64,963.71,988.74,974.12,991.07Z" transform="translate(-796.11 -879)"/><path class="cls-15" d="M980.16,986.21s-17.06-2.91-28.42-.39C951.74,985.82,967,982.48,980.16,986.21Z" transform="translate(-796.11 -879)"/><circle class="cls-15" cx="183.85" cy="107" r="0.94"/><circle class="cls-15" cx="973.9" cy="990.65" r="0.94" transform="translate(-960.53 907.96) rotate(-80.46)"/><path class="cls-15" d="M1053.78,994.07s13.29-1.13,21.79,2.56C1075.57,996.64,1064.19,991.74,1053.78,994.07Z" transform="translate(-796.11 -879)"/><path class="cls-15" d="M1059.74,989.21s17.06-2.91,28.42-.39C1088.16,988.82,1072.95,985.48,1059.74,989.21Z" transform="translate(-796.11 -879)"/><path class="cls-1" d="M1001.53,968.25v4.25c0,6.08,6,11,13.47,11h0v-21h-6.43C1004.68,962.5,1001.53,965.07,1001.53,968.25Z" transform="translate(-796.11 -879)"/><ellipse cx="212.76" cy="90.25" rx="3.37" ry="2.75"/><path class="cls-6" d="M1028.47,968.25v4.25c0,6.08-6,11-13.47,11h0v-21h6.43C1025.32,962.5,1028.47,965.07,1028.47,968.25Z" transform="translate(-796.11 -879)"/><ellipse cx="225.01" cy="90.25" rx="3.37" ry="2.75"/><ellipse cx="1044.26" cy="931.88" rx="16.99" ry="10.89" transform="translate(-831.14 -838.2) rotate(-2.2)"/><ellipse class="cls-8" cx="1044.26" cy="933.66" rx="13.13" ry="8.42" transform="translate(-831.21 -838.2) rotate(-2.2)"/><circle class="cls-9" cx="245.99" cy="54.8" r="5.74"/><circle cx="1044.21" cy="933.53" r="3.91" transform="translate(-1150.38 132.79) rotate(-45)"/><circle class="cls-8" cx="247.63" cy="51.89" r="2.77"/><path class="cls-16" d="M999.72,995.64s5.45,18.61,15.64,18.61S1031,995.64,1031,995.64s-9.27,4.6-15.64,4.6S1004.14,999.32,999.72,995.64Z" transform="translate(-796.11 -879)"/><path class="cls-17" d="M1006.36,1008.9a34.92,34.92,0,0,1,18,0s-3.67,5.37-9,5.35C1009.61,1014.22,1006.36,1008.9,1006.36,1008.9Z" transform="translate(-796.11 -879)"/><path class="cls-6" d="M1071.43,917.08a37.22,37.22,0,0,0-28.26-5.94S1063.49,904.87,1071.43,917.08Z" transform="translate(-796.11 -879)"/><ellipse class="cls-4" cx="936.22" cy="1082.6" rx="14.62" ry="63.1" transform="translate(-1245.54 -154.87) rotate(-34.64)"/><path class="cls-5" d="M911.18,942.86s-6.53,15.59-3.91,21.64L899.81,959S900.58,944.4,911.18,942.86Z" transform="translate(-796.11 -879)"/><circle class="cls-1" cx="97.07" cy="87.1" r="8.2"/><path class="cls-4" d="M889.06,948.87h2a2.12,2.12,0,0,1,2.12,2.12v14.94a0.74,0.74,0,0,1-.74.74h-4.74a0.74,0.74,0,0,1-.74-0.74V951A2.12,2.12,0,0,1,889.06,948.87Z" transform="translate(1226.23 -575.01) rotate(102.9)"/><path class="cls-4" d="M883.78,964.81h0.91a2.12,2.12,0,0,1,2.12,2.12v10.23a0.64,0.64,0,0,1-.64.64h-3.89a0.64,0.64,0,0,1-.64-0.64V966.93A2.12,2.12,0,0,1,883.78,964.81Z" transform="translate(1232.3 -552.79) rotate(102.9)"/><path class="cls-4" d="M885.92,957.75h0.91a2.12,2.12,0,0,1,2.12,2.12v11a0.68,0.68,0,0,1-.68.68h-3.8a0.68,0.68,0,0,1-.68-0.68v-11A2.12,2.12,0,0,1,885.92,957.75Z" transform="translate(1228.46 -563) rotate(102.9)"/></svg>