<svg id="Calque_1" data-name="Calque 1" xmlns="http://www.w3.org/2000/svg" viewBox="0 0 347.42 537.08"><defs><style>.cls-1{fill:#42210b;}.cls-2{fill:#160b04;}.cls-3{fill:#754c24;}.cls-4{fill:#261106;}.cls-5{fill:#fff;}.cls-6{fill:#63371f;}.cls-7{fill:#999;}.cls-8{fill:#725635;}.cls-9{fill:#f2f2f2;}.cls-10{fill:#261207;}.cls-11{fill:#ccc;}.cls-12{fill:#513218;}.cls-13{fill:#e6e6e6;}</style></defs><title>loutre neutre</title><circle class="cls-1" cx="293.05" cy="34.59" r="21.42"/><circle class="cls-2" cx="291.18" cy="35.68" r="13.73"/><path class="cls-1" d="M41.11,383.09S84,375.18,114,391.68,218.9,525.8,218.9,525.8l20.35-63.22-95.43-79.67c-29-24.24-71.31-25.13-100.77-1.42Q42.08,382.27,41.11,383.09Z" transform="translate(-41.11 -44)"/><rect class="cls-1" x="218.89" y="157.5" width="24.56" height="33.5"/><rect class="cls-3" x="194.33" y="157.5" width="24.56" height="33.5"/><path class="cls-4" d="M260,202H235v2l10.94,4.52a36.81,36.81,0,0,0,28.12,0L285,204v-2H260Z" transform="translate(-41.11 -44)"/><circle class="cls-1" cx="145.7" cy="34.5" r="21.42"/><circle class="cls-2" cx="147.56" cy="35.59" r="13.73"/><path class="cls-3" d="M188.38,74.94l-11.56,63.79A55.39,55.39,0,0,0,231.33,204H260V44H225.43A37.65,37.65,0,0,0,188.38,74.94Z" transform="translate(-41.11 -44)"/><path class="cls-1" d="M254.5,96.75c0-6.94-11.25-12.56-25.12-12.56s-25.12,5.62-25.12,12.56c0,6.77,8.59,12.2,22,12.46h0a33.32,33.32,0,0,1,4.19.47l19.43,3.43a3.51,3.51,0,0,0,4.12-3.45v-6a62.2,62.2,0,0,1,.47-6.23A6.37,6.37,0,0,0,254.5,96.75Z" transform="translate(-41.11 -44)"/><ellipse cx="237.13" cy="98.67" rx="8.09" ry="12.62" transform="translate(88.3 287.83) rotate(-87.8)"/><ellipse class="cls-5" cx="237.13" cy="100" rx="6.25" ry="9.75" transform="translate(86.98 289.11) rotate(-87.8)"/><path class="cls-1" d="M211.75,78.5a37.22,37.22,0,0,1,28.75-2.75S221,67.25,211.75,78.5Z" transform="translate(-41.11 -44)"/><path class="cls-1" d="M331.62,74.94l11.56,63.79A55.39,55.39,0,0,1,288.67,204H260V44h34.57A37.65,37.65,0,0,1,331.62,74.94Z" transform="translate(-41.11 -44)"/><path class="cls-2" d="M265.5,96.75c0-6.94,11.25-12.56,25.13-12.56s25.13,5.62,25.13,12.56c0,6.77-8.59,12.2-22,12.46h0a33.32,33.32,0,0,0-4.19.47l-19.43,3.43a3.51,3.51,0,0,1-4.12-3.45v-6a62.2,62.2,0,0,0-.47-6.23A6.37,6.37,0,0,1,265.5,96.75Z" transform="translate(-41.11 -44)"/><ellipse cx="282.88" cy="98.67" rx="12.62" ry="8.09" transform="matrix(1, -0.04, 0.04, 1, -44.7, -33.06)"/><ellipse class="cls-5" cx="282.88" cy="100" rx="9.75" ry="6.25" transform="translate(-44.75 -33.06) rotate(-2.2)"/><circle class="cls-5" cx="242.81" cy="54.67" r="2.91"/><path class="cls-1" d="M308.25,78.5a37.22,37.22,0,0,0-28.75-2.75S299,67.25,308.25,78.5Z" transform="translate(-41.11 -44)"/><circle class="cls-6" cx="196.29" cy="56.47" r="4.49"/><circle cx="236.92" cy="99.66" r="3.25" transform="translate(-42.19 152.71) rotate(-45)"/><circle class="cls-5" cx="193.39" cy="53.51" r="2.48"/><circle class="cls-6" cx="241.31" cy="56.47" r="4.49"/><circle cx="282.92" cy="99.65" r="3.25" transform="translate(-28.71 185.24) rotate(-45)"/><circle class="cls-5" cx="244.21" cy="53.5" r="2.48"/><circle class="cls-7" cx="184.08" cy="106.43" r="0.94"/><circle class="cls-7" cx="219.12" cy="147.07" r="0.94" transform="translate(-3.34 294.8) rotate(-80.46)"/><path class="cls-8" d="M219.12,147.07" transform="translate(-41.11 -44)"/><path class="cls-3" d="M239.54,492.1c-11.42-29.31-31-49.74-46.73-47.2-17.73,2.86-23.76,33.9-13.47,69.32s33,61.82,50.72,59a15.92,15.92,0,0,0,7.6-3.46,108,108,0,0,1-6.81-17.58C223,525.28,227.08,501,239.54,492.1Z" transform="translate(-41.11 -44)"/><path class="cls-3" d="M188.54,287.75L177,397.11c-6.16,58.27,20,111.89,54.51,111.89h28.67V234.71H225.59C207.39,234.71,191.79,257,188.54,287.75Z" transform="translate(-41.11 -44)"/><path class="cls-1" d="M109.78,519.18h82.75a17.89,17.89,0,0,1,17.89,17.89v0a0,0,0,0,1,0,0H91.89a0,0,0,0,1,0,0v0A17.89,17.89,0,0,1,109.78,519.18Z"/><path class="cls-9" d="M215.27,370.71c0,66.48,19.73,120.37,44.73,120.37V250.33C235,250.33,215.27,304.23,215.27,370.71Z" transform="translate(-41.11 -44)"/><path class="cls-1" d="M282,491.89c11.42-29.31,31-49.74,46.73-47.2,17.73,2.86,23.76,33.9,13.47,69.32s-33,61.82-50.72,59a15.92,15.92,0,0,1-7.6-3.46,108,108,0,0,0,6.81-17.58C298.48,525.07,294.45,500.78,282,491.89Z" transform="translate(-41.11 -44)"/><path class="cls-1" d="M332,287.61L343.55,396.9c6.16,58.27-20,111.82-54.51,111.82H260v-274h34.94C313.14,234.71,328.74,256.9,332,287.61Z" transform="translate(-41.11 -44)"/><path class="cls-10" d="M270,563.18H388.53a0,0,0,0,1,0,0v0a17.89,17.89,0,0,1-17.89,17.89H287.89A17.89,17.89,0,0,1,270,563.18v0a0,0,0,0,1,0,0Z" transform="translate(617.42 1100.26) rotate(180)"/><path class="cls-11" d="M304.73,370.71c0-66.48-20.73-120.37-44.73-120.37V491.08C284,491.08,304.73,437.19,304.73,370.71Z" transform="translate(-41.11 -44)"/><ellipse class="cls-4" cx="272.65" cy="239.88" rx="14.35" ry="42.16"/><ellipse class="cls-4" cx="302.95" cy="337.9" rx="55.87" ry="11.95" transform="translate(-157.64 467.09) rotate(-70.55)"/><path class="cls-4" d="M281.57,378.71h7.28a7.14,7.14,0,0,1,7.14,7.14V393a10.7,10.7,0,0,1-10.7,10.7H274a0,0,0,0,1,0,0V386.29A7.57,7.57,0,0,1,281.57,378.71Z" transform="translate(528.89 738.43) rotate(180)"/><ellipse class="cls-4" cx="253.5" cy="358.66" rx="2.05" ry="6.75"/><ellipse class="cls-4" cx="248.03" cy="363.26" rx="2.05" ry="8.9"/><ellipse class="cls-4" cx="242.14" cy="363.45" rx="2.05" ry="12.36"/><ellipse class="cls-4" cx="235.19" cy="359.75" rx="2.05" ry="12.36"/><path class="cls-4" d="M322,284.22c6.23,2.2,3.06,27.3-7,56.33l-22.85-8.07C302.46,303.54,315.75,282,322,284.22Z" transform="translate(-41.11 -44)"/><ellipse class="cls-12" cx="165.65" cy="240.16" rx="14.35" ry="42.16"/><ellipse class="cls-12" cx="217.58" cy="338.19" rx="11.95" ry="55.87" transform="translate(-141.29 47.72) rotate(-19.45)"/><path class="cls-12" d="M183.12,335.31h11.6a10.41,10.41,0,0,1,10.41,10.41v7.14a7.18,7.18,0,0,1-7.18,7.18h-7a7.87,7.87,0,0,1-7.87-7.87V335.31A0,0,0,0,1,183.12,335.31Z"/><ellipse class="cls-12" cx="184.8" cy="358.94" rx="2.05" ry="6.75"/><ellipse class="cls-12" cx="190.27" cy="363.55" rx="2.05" ry="8.9"/><ellipse class="cls-12" cx="196.16" cy="363.73" rx="2.05" ry="12.36"/><ellipse class="cls-12" cx="203.11" cy="360.04" rx="2.05" ry="12.36"/><path class="cls-12" d="M198.55,284.51c-6.23,2.2-3.06,27.3,7,56.33l22.85-8.07C218.07,303.83,204.78,282.31,198.55,284.51Z" transform="translate(-41.11 -44)"/><path class="cls-9" d="M203.66,141a23.51,23.51,0,0,0-20.35,35.26,55.3,55.3,0,0,0,48,27.74H260V141H203.66Z" transform="translate(-41.11 -44)"/><path class="cls-11" d="M260,204h28.67a55.3,55.3,0,0,0,48-27.74A23.51,23.51,0,0,0,316.34,141H260v63Z" transform="translate(-41.11 -44)"/><path d="M237.13,162.88S243.5,172,260,174.5V182A32.69,32.69,0,0,1,237.13,162.88Z" transform="translate(-41.11 -44)"/><path d="M282.88,162.88S276.5,172,260,174.5V182A32.69,32.69,0,0,0,282.88,162.88Z" transform="translate(-41.11 -44)"/><circle class="cls-8" cx="263.96" cy="109.99" r="0.94"/><circle class="cls-8" cx="299" cy="158.64" r="0.94" transform="translate(51.9 383.23) rotate(-80.46)"/><circle class="cls-8" cx="253.7" cy="106.73" r="0.94"/><circle class="cls-8" cx="288.75" cy="155.38" r="0.94" transform="translate(46.56 370.39) rotate(-80.46)"/><circle class="cls-7" cx="194.33" cy="110.69" r="0.94"/><circle class="cls-7" cx="229.38" cy="159.33" r="0.94" transform="translate(-6.87 315.14) rotate(-80.46)"/><path class="cls-13" d="M219.12,156.07s-13.29-1.13-21.79,2.56C197.33,158.64,208.71,153.74,219.12,156.07Z" transform="translate(-41.11 -44)"/><path class="cls-13" d="M225.16,151.21s-17.06-2.91-28.42-.39C196.74,150.82,212,147.48,225.16,151.21Z" transform="translate(-41.11 -44)"/><circle class="cls-7" cx="183.85" cy="107" r="0.94"/><circle class="cls-7" cx="218.9" cy="155.65" r="0.94" transform="translate(-11.99 301.73) rotate(-80.46)"/><path class="cls-8" d="M298.78,159.07s13.29-1.13,21.79,2.56C320.57,161.64,309.19,156.74,298.78,159.07Z" transform="translate(-41.11 -44)"/><path class="cls-8" d="M304.74,154.21s17.06-2.91,28.42-.39C333.16,153.82,317.95,150.48,304.74,154.21Z" transform="translate(-41.11 -44)"/><path class="cls-1" d="M246.53,133.25v4.25c0,6.08,6,11,13.47,11h0v-21h-6.43C249.68,127.5,246.53,130.07,246.53,133.25Z" transform="translate(-41.11 -44)"/><ellipse cx="212.76" cy="90.25" rx="3.37" ry="2.75"/><path class="cls-2" d="M273.47,133.25v4.25c0,6.08-6,11-13.47,11h0v-21h6.43C270.32,127.5,273.47,130.07,273.47,133.25Z" transform="translate(-41.11 -44)"/><ellipse cx="225.01" cy="90.25" rx="3.37" ry="2.75"/></svg>