<svg id="Calque_1" data-name="Calque 1" xmlns="http://www.w3.org/2000/svg" viewBox="0 0 347.42 537.08"><defs><style>.cls-1{fill:#42210b;}.cls-2{fill:#160b04;}.cls-3{fill:#754c24;}.cls-4{fill:#261106;}.cls-5{fill:#fff;}.cls-6{fill:#1e0e05;}.cls-7{fill:#63371f;}.cls-8{fill:#999;}.cls-9{fill:#725635;}.cls-10{fill:#f2f2f2;}.cls-11{fill:#261207;}.cls-12{fill:#ccc;}.cls-13{fill:#1c0e05;}.cls-14{fill:#513218;}.cls-15{fill:#474645;}.cls-16{fill:#19120b;}.cls-17{fill:#e54564;}</style></defs><title>loutre surprise</title><circle class="cls-1" cx="293.05" cy="34.59" r="21.42"/><circle class="cls-2" cx="291.18" cy="35.68" r="13.73"/><path class="cls-1" d="M414.11,377.09S457,369.18,487,385.68,591.9,519.8,591.9,519.8l20.35-63.22-95.43-79.67c-29-24.24-71.31-25.13-100.77-1.42Q415.08,376.27,414.11,377.09Z" transform="translate(-414.11 -38)"/><rect class="cls-1" x="218.89" y="157.5" width="24.56" height="33.5"/><rect class="cls-3" x="194.33" y="157.5" width="24.56" height="33.5"/><path class="cls-4" d="M633,196H608v2l10.94,4.52a36.81,36.81,0,0,0,28.12,0L658,198v-2H633Z" transform="translate(-414.11 -38)"/><circle class="cls-1" cx="145.7" cy="34.5" r="21.42"/><circle class="cls-2" cx="147.56" cy="35.59" r="13.73"/><path class="cls-3" d="M561.38,68.94l-11.56,63.79A55.39,55.39,0,0,0,604.33,198H633V38H598.43A37.65,37.65,0,0,0,561.38,68.94Z" transform="translate(-414.11 -38)"/><path class="cls-1" d="M627.5,90.75c0-6.94-11.25-12.56-25.12-12.56s-25.12,5.62-25.12,12.56c0,6.77,8.59,12.2,22,12.46h0a33.32,33.32,0,0,1,4.19.47l19.43,3.43a3.51,3.51,0,0,0,4.12-3.45v-6a62.2,62.2,0,0,1,.47-6.23A6.37,6.37,0,0,0,627.5,90.75Z" transform="translate(-414.11 -38)"/><ellipse cx="608.03" cy="91.33" rx="9.43" ry="14.71" transform="translate(79.3 657.4) rotate(-87.8)"/><ellipse class="cls-5" cx="608.03" cy="92.87" rx="7.29" ry="11.37" transform="matrix(0.04, -1, 1, 0.04, 77.75, 658.89)"/><path class="cls-1" d="M583.87,74.86a37.22,37.22,0,0,1,27.25-9.57S590.15,61.72,583.87,74.86Z" transform="translate(-414.11 -38)"/><path class="cls-1" d="M704.62,68.94l11.56,63.79A55.39,55.39,0,0,1,661.67,198H633V38h34.57A37.65,37.65,0,0,1,704.62,68.94Z" transform="translate(-414.11 -38)"/><path class="cls-2" d="M638.5,90.75c0-6.94,11.25-12.56,25.13-12.56s25.13,5.62,25.13,12.56c0,6.77-8.59,12.2-22,12.46h0a33.32,33.32,0,0,0-4.19.47l-19.43,3.43a3.51,3.51,0,0,1-4.12-3.45v-6a62.2,62.2,0,0,0-.47-6.23A6.37,6.37,0,0,1,638.5,90.75Z" transform="translate(-414.11 -38)"/><path class="cls-6" d="M681.5,75.06a37.22,37.22,0,0,0-26.25-12S676.45,61.39,681.5,75.06Z" transform="translate(-414.11 -38)"/><circle class="cls-7" cx="195.78" cy="54.99" r="4.97"/><circle cx="608.07" cy="92.76" r="3.39" transform="translate(-301.6 419.14) rotate(-45)"/><circle class="cls-5" cx="192.3" cy="52.53" r="2.46"/><circle class="cls-8" cx="184.08" cy="106.43" r="0.94"/><circle class="cls-8" cx="592.12" cy="141.07" r="0.94" transform="translate(-59.22 663.64) rotate(-80.46)"/><path class="cls-9" d="M592.12,141.07" transform="translate(-414.11 -38)"/><path class="cls-3" d="M612.54,486.1c-11.42-29.31-31-49.74-46.73-47.2-17.73,2.86-23.76,33.9-13.47,69.32s33,61.82,50.72,59a15.92,15.92,0,0,0,7.6-3.46,108,108,0,0,1-6.81-17.58C596,519.28,600.08,495,612.54,486.1Z" transform="translate(-414.11 -38)"/><path class="cls-3" d="M561.54,281.75L550,391.11c-6.16,58.27,20,111.89,54.51,111.89h28.67V228.71H598.59C580.39,228.71,564.79,251,561.54,281.75Z" transform="translate(-414.11 -38)"/><path class="cls-1" d="M109.78,519.18h82.75a17.89,17.89,0,0,1,17.89,17.89v0a0,0,0,0,1,0,0H91.89a0,0,0,0,1,0,0v0A17.89,17.89,0,0,1,109.78,519.18Z"/><path class="cls-10" d="M588.27,364.71c0,66.48,19.73,120.37,44.73,120.37V244.33C608,244.33,588.27,298.23,588.27,364.71Z" transform="translate(-414.11 -38)"/><path class="cls-1" d="M655,485.89c11.42-29.31,31-49.74,46.73-47.2,17.73,2.86,23.76,33.9,13.47,69.32s-33,61.82-50.72,59a15.92,15.92,0,0,1-7.6-3.46,108,108,0,0,0,6.81-17.58C671.48,519.07,667.45,494.78,655,485.89Z" transform="translate(-414.11 -38)"/><path class="cls-1" d="M705,281.61L716.55,390.9c6.16,58.27-20,111.82-54.51,111.82H633v-274h34.94C686.14,228.71,701.74,250.9,705,281.61Z" transform="translate(-414.11 -38)"/><path class="cls-11" d="M643,557.18H761.53a0,0,0,0,1,0,0v0a17.89,17.89,0,0,1-17.89,17.89H660.89A17.89,17.89,0,0,1,643,557.18v0a0,0,0,0,1,0,0Z" transform="translate(990.42 1094.26) rotate(180)"/><path class="cls-12" d="M677.73,364.71c0-66.48-20.73-120.37-44.73-120.37V485.08C657,485.08,677.73,431.19,677.73,364.71Z" transform="translate(-414.11 -38)"/><ellipse class="cls-4" cx="712.37" cy="262.63" rx="14.54" ry="50.09" transform="translate(-354.45 612.48) rotate(-50.96)"/><ellipse class="cls-13" cx="732.93" cy="316.65" rx="36.05" ry="10.91" transform="translate(-299.31 784) rotate(-62.63)"/><path class="cls-13" d="M704.75,335.55h7a7.14,7.14,0,0,1,7.14,7.14v7.16a10.7,10.7,0,0,1-10.7,10.7h-4.8a6.5,6.5,0,0,1-6.5-6.5V343.39A7.83,7.83,0,0,1,704.75,335.55Z" transform="translate(411.56 1090.07) rotate(-124.77)"/><ellipse class="cls-13" cx="704" cy="362.48" rx="6.75" ry="2.05" transform="translate(-495.14 428.15) rotate(-34.77)"/><ellipse class="cls-13" cx="697.09" cy="360.61" rx="8.9" ry="2.05" transform="translate(-495.3 423.88) rotate(-34.77)"/><ellipse class="cls-13" cx="693.59" cy="355.87" rx="12.36" ry="2.05" transform="translate(-493.23 421.04) rotate(-34.77)"/><ellipse class="cls-13" cx="692.66" cy="348.06" rx="12.36" ry="2.05" transform="translate(-488.94 419.11) rotate(-34.77)"/><ellipse class="cls-14" cx="578.38" cy="277.75" rx="13.07" ry="41.5" transform="matrix(0.98, -0.19, 0.19, 0.98, -456.44, 77.27)"/><path class="cls-10" d="M576.66,135a23.51,23.51,0,0,0-20.35,35.26,55.3,55.3,0,0,0,48,27.74H633V135H576.66Z" transform="translate(-414.11 -38)"/><path class="cls-12" d="M633,198h28.67a55.3,55.3,0,0,0,48-27.74A23.51,23.51,0,0,0,689.34,135H633v63Z" transform="translate(-414.11 -38)"/><circle class="cls-15" cx="263.96" cy="109.99" r="0.94"/><circle class="cls-15" cx="672" cy="152.64" r="0.94" transform="translate(-3.98 752.06) rotate(-80.46)"/><circle class="cls-15" cx="253.7" cy="106.73" r="0.94"/><circle class="cls-15" cx="661.75" cy="149.38" r="0.94" transform="translate(-9.32 739.23) rotate(-80.46)"/><circle class="cls-15" cx="194.33" cy="110.69" r="0.94"/><circle class="cls-15" cx="602.38" cy="153.33" r="0.94" transform="translate(-62.76 683.98) rotate(-80.46)"/><path class="cls-15" d="M592.12,150.07s-13.29-1.13-21.79,2.56C570.33,152.64,581.71,147.74,592.12,150.07Z" transform="translate(-414.11 -38)"/><path class="cls-15" d="M598.16,145.21s-17.06-2.91-28.42-.39C569.74,144.82,585,141.48,598.16,145.21Z" transform="translate(-414.11 -38)"/><circle class="cls-15" cx="183.85" cy="107" r="0.94"/><circle class="cls-15" cx="591.9" cy="149.65" r="0.94" transform="translate(-67.87 670.57) rotate(-80.46)"/><path class="cls-15" d="M671.78,153.07s13.29-1.13,21.79,2.56C693.57,155.64,682.19,150.74,671.78,153.07Z" transform="translate(-414.11 -38)"/><path class="cls-15" d="M677.74,148.21s17.06-2.91,28.42-.39C706.16,147.82,690.95,144.48,677.74,148.21Z" transform="translate(-414.11 -38)"/><path class="cls-1" d="M619.53,127.25v4.25c0,6.08,6,11,13.47,11h0v-21h-6.43C622.68,121.5,619.53,124.07,619.53,127.25Z" transform="translate(-414.11 -38)"/><ellipse cx="212.76" cy="90.25" rx="3.37" ry="2.75"/><path class="cls-2" d="M646.47,127.25v4.25c0,6.08-6,11-13.47,11h0v-21h6.43C643.32,121.5,646.47,124.07,646.47,127.25Z" transform="translate(-414.11 -38)"/><ellipse cx="225.01" cy="90.25" rx="3.37" ry="2.75"/><path class="cls-16" d="M617.28,160.28a3.15,3.15,0,0,1,2.95-4.28H645a3.15,3.15,0,0,1,3,4.13c-1.59,4.94-5.57,12.54-15,12.54S619.2,165.22,617.28,160.28Z" transform="translate(-414.11 -38)"/><path class="cls-17" d="M622.52,168.49s8.43-5,20.7,0A13.76,13.76,0,0,1,633,172.67,15.37,15.37,0,0,1,622.52,168.49Z" transform="translate(-414.11 -38)"/><ellipse cx="657.86" cy="91.33" rx="14.71" ry="9.43" transform="translate(-417.14 -12.66) rotate(-2.2)"/><ellipse class="cls-5" cx="657.86" cy="92.87" rx="11.37" ry="7.29" transform="translate(-417.2 -12.66) rotate(-2.2)"/><circle class="cls-7" cx="241.89" cy="54.99" r="4.97"/><circle cx="657.82" cy="92.76" r="3.39" transform="translate(-287.03 454.32) rotate(-45)"/><circle class="cls-5" cx="243.31" cy="52.47" r="2.4"/><circle class="cls-14" cx="164.27" cy="206.33" r="13.22"/><ellipse class="cls-1" cx="597.03" cy="257.96" rx="63.14" ry="14.18" transform="translate(-195.03 749.25) rotate(-77.84)"/><path class="cls-1" d="M606.92,183.4h4.87a10.41,10.41,0,0,1,10.41,10.41v7.14a7.18,7.18,0,0,1-7.18,7.18h-7a7.87,7.87,0,0,1-7.87-7.87V190.13a6.73,6.73,0,0,1,6.73-6.73Z" transform="translate(698.67 558.1) rotate(-159.17)"/><ellipse class="cls-1" cx="623.9" cy="188.54" rx="6.75" ry="2.05" transform="translate(-188.33 666.59) rotate(-69.17)"/><ellipse class="cls-1" cx="620.43" cy="182.29" rx="8.9" ry="2.05" transform="translate(-184.73 659.31) rotate(-69.17)"/><ellipse class="cls-1" cx="614.99" cy="180.02" rx="12.36" ry="2.05" transform="translate(-186.11 652.77) rotate(-69.17)"/><ellipse class="cls-1" cx="607.18" cy="181.01" rx="12.36" ry="2.05" transform="translate(-192.06 646.11) rotate(-69.17)"/></svg>