<svg id="Calque_1" data-name="Calque 1" xmlns="http://www.w3.org/2000/svg" viewBox="0 0 347.42 537.08"><defs><style>.cls-1{fill:#42210b;}.cls-2{fill:#160b04;}.cls-3{fill:#754c24;}.cls-4{fill:#261106;}.cls-5{fill:#fff;}.cls-6{fill:#63371f;}.cls-7{fill:#999;}.cls-8{fill:#725635;}.cls-9{fill:#f2f2f2;}.cls-10{fill:#261207;}.cls-11{fill:#ccc;}.cls-12{fill:#1c0e05;}.cls-13{fill:#474645;}.cls-14{fill:#19120b;}.cls-15{fill:#1e0e05;}.cls-16{fill:#513218;}</style></defs><title>loutre pas content</title><circle class="cls-1" cx="293.05" cy="34.59" r="21.42"/><circle class="cls-2" cx="291.18" cy="35.68" r="13.73"/><path class="cls-1" d="M810.11,365.09S853,357.18,883,373.68,987.9,507.8,987.9,507.8l20.35-63.22-95.43-79.67c-29-24.24-71.31-25.13-100.77-1.42Q811.08,364.27,810.11,365.09Z" transform="translate(-810.11 -26)"/><rect class="cls-1" x="218.89" y="157.5" width="24.56" height="33.5"/><rect class="cls-3" x="194.33" y="157.5" width="24.56" height="33.5"/><path class="cls-4" d="M1029,184h-25v2l10.94,4.52a36.81,36.81,0,0,0,28.12,0L1054,186v-2h-25Z" transform="translate(-810.11 -26)"/><circle class="cls-1" cx="145.7" cy="34.5" r="21.42"/><circle class="cls-2" cx="147.56" cy="35.59" r="13.73"/><path class="cls-3" d="M957.38,56.94l-11.56,63.79A55.39,55.39,0,0,0,1000.33,186H1029V26H994.43A37.65,37.65,0,0,0,957.38,56.94Z" transform="translate(-810.11 -26)"/><path class="cls-1" d="M1023.5,78.75c0-6.94-11.25-12.56-25.12-12.56s-25.12,5.62-25.12,12.56c0,6.77,8.59,12.2,22,12.46h0a33.32,33.32,0,0,1,4.19.47l19.43,3.43a3.51,3.51,0,0,0,4.12-3.45v-6a62.2,62.2,0,0,1,.47-6.23A6.37,6.37,0,0,0,1023.5,78.75Z" transform="translate(-810.11 -26)"/><path d="M1018.73,82.87c-0.2,3.46-6.94,6.09-15.06,5.88s-14.54-3.18-14.34-6.63,6.94-6.09,15.06-5.88S1018.93,79.42,1018.73,82.87Z" transform="translate(-810.11 -26)"/><path class="cls-5" d="M1015.39,83.82c-0.15,2.67-5.37,4.71-11.64,4.55s-11.24-2.46-11.08-5.13,5.37-4.71,11.64-4.55S1015.55,81.14,1015.39,83.82Z" transform="translate(-810.11 -26)"/><path class="cls-1" d="M1100.62,56.94l11.56,63.79A55.39,55.39,0,0,1,1057.67,186H1029V26h34.57A37.65,37.65,0,0,1,1100.62,56.94Z" transform="translate(-810.11 -26)"/><path class="cls-2" d="M1034.5,78.75c0-6.94,11.25-12.56,25.13-12.56s25.13,5.62,25.13,12.56c0,6.77-8.59,12.2-22,12.46h0a33.32,33.32,0,0,0-4.19.47l-19.43,3.43a3.51,3.51,0,0,1-4.12-3.45v-6a62.2,62.2,0,0,0-.47-6.23A6.37,6.37,0,0,1,1034.5,78.75Z" transform="translate(-810.11 -26)"/><ellipse class="cls-6" cx="195.78" cy="57.6" rx="4.97" ry="3.3"/><path d="M1006.47,81.86a1.77,1.77,0,0,1,0,3.18,4.69,4.69,0,0,1-4.79,0,1.77,1.77,0,0,1,0-3.18A4.69,4.69,0,0,1,1006.47,81.86Z" transform="translate(-810.11 -26)"/><ellipse class="cls-5" cx="192.3" cy="55.97" rx="2.46" ry="1.63"/><circle class="cls-7" cx="184.08" cy="106.43" r="0.94"/><circle class="cls-7" cx="988.12" cy="129.07" r="0.94" transform="translate(-113 1056.15) rotate(-80.46)"/><path class="cls-8" d="M988.12,129.07" transform="translate(-810.11 -26)"/><path class="cls-3" d="M1008.54,474.1c-11.42-29.31-31-49.74-46.73-47.2-17.73,2.86-23.76,33.9-13.47,69.32s33,61.82,50.72,59a15.92,15.92,0,0,0,7.6-3.46,108,108,0,0,1-6.81-17.58C992,507.28,996.08,483,1008.54,474.1Z" transform="translate(-810.11 -26)"/><path class="cls-3" d="M957.54,269.75L946,379.11c-6.16,58.27,20,111.89,54.51,111.89h28.67V216.71H994.59C976.39,216.71,960.79,239,957.54,269.75Z" transform="translate(-810.11 -26)"/><path class="cls-1" d="M109.78,519.18h82.75a17.89,17.89,0,0,1,17.89,17.89v0a0,0,0,0,1,0,0H91.89a0,0,0,0,1,0,0v0A17.89,17.89,0,0,1,109.78,519.18Z"/><path class="cls-9" d="M984.27,352.71c0,66.48,19.73,120.37,44.73,120.37V232.33C1004,232.33,984.27,286.23,984.27,352.71Z" transform="translate(-810.11 -26)"/><path class="cls-1" d="M1051,473.89c11.42-29.31,31-49.74,46.73-47.2,17.73,2.86,23.76,33.9,13.47,69.32s-33,61.82-50.72,59a15.92,15.92,0,0,1-7.6-3.46,108,108,0,0,0,6.81-17.58C1067.48,507.07,1063.45,482.78,1051,473.89Z" transform="translate(-810.11 -26)"/><path class="cls-1" d="M1101,269.61l11.56,109.29c6.16,58.27-20,111.82-54.51,111.82h-29v-274h34.94C1082.14,216.71,1097.74,238.9,1101,269.61Z" transform="translate(-810.11 -26)"/><path class="cls-10" d="M1039,545.18h118.53a0,0,0,0,1,0,0v0a17.89,17.89,0,0,1-17.89,17.89h-82.75A17.89,17.89,0,0,1,1039,545.18v0A0,0,0,0,1,1039,545.18Z" transform="translate(1386.42 1082.26) rotate(180)"/><path class="cls-11" d="M1073.73,352.71c0-66.48-20.73-120.37-44.73-120.37V473.08C1053,473.08,1073.73,419.19,1073.73,352.71Z" transform="translate(-810.11 -26)"/><ellipse class="cls-4" cx="1108.37" cy="250.63" rx="14.54" ry="50.09" transform="translate(-594.56 927.61) rotate(-50.96)"/><ellipse class="cls-12" cx="1128.93" cy="304.65" rx="36.05" ry="10.91" transform="translate(-470.69 1141.19) rotate(-62.63)"/><path class="cls-12" d="M1100.75,323.55h7a7.14,7.14,0,0,1,7.14,7.14v7.16a10.7,10.7,0,0,1-10.7,10.7h-4.8a6.5,6.5,0,0,1-6.5-6.5V331.39a7.83,7.83,0,0,1,7.83-7.83Z" transform="translate(647.24 1408.53) rotate(-124.77)"/><ellipse class="cls-12" cx="1100" cy="350.48" rx="6.75" ry="2.05" transform="matrix(0.82, -0.57, 0.57, 0.82, -813.6, 663.83)"/><ellipse class="cls-12" cx="1093.09" cy="348.61" rx="8.9" ry="2.05" transform="translate(-813.77 659.55) rotate(-34.77)"/><ellipse class="cls-12" cx="1089.59" cy="343.87" rx="12.36" ry="2.05" transform="translate(-811.69 656.71) rotate(-34.77)"/><ellipse class="cls-12" cx="1088.66" cy="336.06" rx="12.36" ry="2.05" transform="translate(-807.4 654.79) rotate(-34.77)"/><path class="cls-9" d="M972.66,123a23.51,23.51,0,0,0-20.35,35.26,55.3,55.3,0,0,0,48,27.74H1029V123H972.66Z" transform="translate(-810.11 -26)"/><path class="cls-11" d="M1029,186h28.67a55.3,55.3,0,0,0,48-27.74A23.51,23.51,0,0,0,1085.34,123H1029v63Z" transform="translate(-810.11 -26)"/><circle class="cls-13" cx="263.96" cy="109.99" r="0.94"/><circle class="cls-13" cx="1068" cy="140.64" r="0.94" transform="translate(-57.75 1144.58) rotate(-80.46)"/><circle class="cls-13" cx="253.7" cy="106.73" r="0.94"/><circle class="cls-13" cx="1057.75" cy="137.38" r="0.94" transform="matrix(0.17, -0.99, 0.99, 0.17, -63.1, 1131.75)"/><circle class="cls-13" cx="194.33" cy="110.69" r="0.94"/><circle class="cls-13" cx="998.38" cy="141.33" r="0.94" transform="translate(-116.53 1076.49) rotate(-80.46)"/><path class="cls-13" d="M988.12,138.07s-13.29-1.13-21.79,2.56C966.33,140.64,977.71,135.74,988.12,138.07Z" transform="translate(-810.11 -26)"/><path class="cls-13" d="M994.16,133.21s-17.06-2.91-28.42-.39C965.74,132.82,981,129.48,994.16,133.21Z" transform="translate(-810.11 -26)"/><circle class="cls-13" cx="183.85" cy="107" r="0.94"/><circle class="cls-13" cx="987.9" cy="137.65" r="0.94" transform="translate(-121.64 1063.09) rotate(-80.46)"/><path class="cls-13" d="M1067.78,141.07s13.29-1.13,21.79,2.56C1089.57,143.64,1078.19,138.74,1067.78,141.07Z" transform="translate(-810.11 -26)"/><path class="cls-13" d="M1073.74,136.21s17.06-2.91,28.42-.39C1102.16,135.82,1086.95,132.48,1073.74,136.21Z" transform="translate(-810.11 -26)"/><path class="cls-1" d="M1015.53,115.25v4.25c0,6.08,6,11,13.47,11h0v-21h-6.43C1018.68,109.5,1015.53,112.07,1015.53,115.25Z" transform="translate(-810.11 -26)"/><ellipse cx="212.76" cy="90.25" rx="3.37" ry="2.75"/><path class="cls-2" d="M1042.47,115.25v4.25c0,6.08-6,11-13.47,11h0v-21h6.43C1039.32,109.5,1042.47,112.07,1042.47,115.25Z" transform="translate(-810.11 -26)"/><ellipse cx="225.01" cy="90.25" rx="3.37" ry="2.75"/><path class="cls-14" d="M1013.66,148.21c-0.8.24,0.73,0.51,2.95,0.51h24.8c2.14,0,3.66-.25,3-0.49-1.59-.58-5.57-1.49-15-1.49S1015.58,147.62,1013.66,148.21Z" transform="translate(-810.11 -26)"/><path d="M1039.16,82.87c0.2,3.46,6.94,6.09,15.06,5.88s14.54-3.18,14.34-6.63-6.94-6.09-15.06-5.88S1039,79.42,1039.16,82.87Z" transform="translate(-810.11 -26)"/><path class="cls-5" d="M1042.5,83.82c0.15,2.67,5.37,4.71,11.64,4.55s11.24-2.46,11.08-5.13-5.37-4.71-11.64-4.55S1042.35,81.14,1042.5,83.82Z" transform="translate(-810.11 -26)"/><ellipse class="cls-6" cx="241.89" cy="57.6" rx="4.97" ry="3.3"/><path d="M1051.43,81.86a1.77,1.77,0,0,0,0,3.18,4.69,4.69,0,0,0,4.79,0,1.77,1.77,0,0,0,0-3.18A4.69,4.69,0,0,0,1051.43,81.86Z" transform="translate(-810.11 -26)"/><ellipse class="cls-5" cx="243.31" cy="55.93" rx="2.4" ry="1.6"/><path class="cls-15" d="M1022.27,65.5s-13.61-1.25-22.31-10.75C1000,54.75,1011,70,1022.27,65.5Z" transform="translate(-810.11 -26)"/><path class="cls-15" d="M1036,65.5s13.61-1.25,22.31-10.75C1058.27,54.75,1047.19,70,1036,65.5Z" transform="translate(-810.11 -26)"/><ellipse class="cls-16" cx="949.81" cy="249.17" rx="50.09" ry="14.54" transform="translate(-754.96 627.93) rotate(-39.04)"/><ellipse class="cls-16" cx="929.25" cy="303.19" rx="10.91" ry="36.05" transform="translate(-845.49 435.09) rotate(-27.37)"/><path class="cls-16" d="M949.76,322.09h4.8a10.7,10.7,0,0,1,10.7,10.7V340a7.14,7.14,0,0,1-7.14,7.14h-7a7.83,7.83,0,0,1-7.83-7.83V328.6a6.5,6.5,0,0,1,6.5-6.5Z" transform="translate(-674.87 901.7) rotate(-55.23)"/><ellipse class="cls-16" cx="958.18" cy="349.02" rx="2.05" ry="6.75" transform="matrix(0.57, -0.82, 0.82, 0.57, -685.04, 911.12)"/><ellipse class="cls-16" cx="965.08" cy="347.15" rx="2.05" ry="8.9" transform="translate(-680.53 915.99) rotate(-55.23)"/><ellipse class="cls-16" cx="968.59" cy="342.41" rx="2.05" ry="12.36" transform="translate(-675.13 916.84) rotate(-55.23)"/><ellipse class="cls-16" cx="969.52" cy="334.6" rx="2.05" ry="12.36" transform="matrix(0.57, -0.82, 0.82, 0.57, -668.32, 914.24)"/></svg>